<svg width="31" height="31" viewBox="0 0 31 31" fill="none" xmlns="http://www.w3.org/2000/svg">
<g id="Group 105">
<rect id="Rectangle 52" width="31" height="31" rx="5" fill="#00668C" fill-opacity="0.25"/>
<g id="Group 103">
<path id="Vector" d="M20 13.25H11V14.75H20V13.25Z" fill="#00668C"/>
<path id="Vector_2" d="M20 17H11V18.5H20V17Z" fill="#00668C"/>
<path id="Vector_3" d="M26 8.31058L24.9394 7.25L22.4269 9.7625C22.0682 9.3299 21.67 8.93161 21.2375 8.57277L23.75 6.06058L22.6894 5L19.9825 7.70705C18.2694 6.71629 16.2771 6.31883 14.315 6.57639C12.3529 6.83395 10.5308 7.73212 9.13144 9.13144C7.73212 10.5308 6.83395 12.3529 6.57639 14.315C6.31883 16.2771 6.71629 18.2694 7.70705 19.9825L5 22.6894L6.06058 23.75L8.57308 21.2375C8.9318 21.6701 9.32999 22.0684 9.7625 22.4272L7.25 24.9394L8.31058 26L11.0176 23.2929C12.7306 24.2837 14.7229 24.6812 16.685 24.4236C18.6471 24.166 20.4692 23.2679 21.8686 21.8686C23.2679 20.4692 24.166 18.6471 24.4236 16.685C24.6812 14.7229 24.2837 12.7306 23.2929 11.0176L26 8.31058ZM15.5 23C14.0166 23 12.5666 22.5601 11.3332 21.736C10.0999 20.9119 9.13856 19.7406 8.5709 18.3701C8.00325 16.9997 7.85472 15.4917 8.14411 14.0368C8.4335 12.582 9.14781 11.2456 10.1967 10.1967C11.2456 9.14781 12.582 8.4335 14.0368 8.14411C15.4917 7.85472 16.9997 8.00325 18.3701 8.5709C19.7406 9.13856 20.9119 10.0999 21.736 11.3332C22.5601 12.5666 23 14.0166 23 15.5C22.9977 17.4884 22.2068 19.3948 20.8008 20.8008C19.3948 22.2068 17.4884 22.9977 15.5 23Z" fill="#00668C"/>
</g>
</g>
</svg>
