<svg width="13" height="13" viewBox="0 0 13 13" fill="none" xmlns="http://www.w3.org/2000/svg">
<g id="1">
<path id="Vector" d="M9.52714 13.0001C9.02131 12.9963 8.5177 12.9328 8.02678 12.8109C6.33144 12.4019 4.58566 11.3642 3.11182 9.8891C1.63798 8.41397 0.599048 6.66786 0.190007 4.97414C-0.240698 3.19247 0.0664868 1.66818 1.05401 0.680664L1.33597 0.398701C1.59179 0.143389 1.93846 0 2.29988 0C2.66131 0 3.00797 0.143389 3.2638 0.398701L4.88412 2.0187C5.13959 2.27444 5.28309 2.62113 5.28309 2.98261C5.28309 3.34409 5.13959 3.69079 4.88412 3.94653L3.92699 4.90333C4.38583 5.70847 5.0099 6.51427 5.74747 7.25184C6.48504 7.9894 7.29148 8.6138 8.0963 9.07263L9.0531 8.11551C9.17967 7.9889 9.32994 7.88846 9.49533 7.81994C9.66072 7.75141 9.83799 7.71614 10.017 7.71614C10.196 7.71614 10.3733 7.75141 10.5387 7.81994C10.7041 7.88846 10.8544 7.9889 10.9809 8.11551L12.6009 9.73551C12.8565 9.99115 13 10.3378 13 10.6993C13 11.0607 12.8565 11.4074 12.6009 11.663L12.3186 11.945C11.6225 12.6424 10.6589 13.0001 9.52714 13.0001ZM2.29988 0.969418C2.24826 0.969162 2.1971 0.979212 2.1494 0.998978C2.10171 1.01874 2.05843 1.04783 2.02212 1.08453L1.73984 1.3665C1.00033 2.106 0.784329 3.30661 1.13161 4.74521C1.49926 6.26917 2.44571 7.85262 3.79636 9.20295C5.147 10.5533 6.73014 11.4987 8.25442 11.8677C9.69334 12.215 10.8933 11.999 11.6328 11.2595L11.9148 10.9775C11.9884 10.9038 12.0298 10.8038 12.0298 10.6996C12.0298 10.5954 11.9884 10.4954 11.9148 10.4217L10.2951 8.80166C10.2214 8.72799 10.1214 8.68661 10.0172 8.68661C9.91295 8.68661 9.81299 8.72799 9.73926 8.80166L8.52636 10.0146C8.45358 10.0874 8.35952 10.1351 8.25779 10.151C8.15606 10.1668 8.05194 10.1498 7.96049 10.1025C6.96618 9.58838 5.96379 8.83982 5.06164 7.93767C4.15948 7.03551 3.41254 6.03377 2.89712 5.03946C2.84978 4.94804 2.83276 4.84394 2.84851 4.74221C2.86427 4.64048 2.91198 4.54641 2.98474 4.47359L4.19796 3.26069C4.27163 3.18696 4.31302 3.087 4.31302 2.98277C4.31302 2.87854 4.27163 2.77858 4.19796 2.70485L2.57797 1.08453C2.54154 1.04789 2.4982 1.01885 2.45047 0.999091C2.40273 0.979331 2.35155 0.969245 2.29988 0.969418Z" fill="#1D1C1C" fill-opacity="0.8"/>
<path id="Vector_2" d="M10.0455 7.16905C9.91691 7.16905 9.79354 7.11795 9.70258 7.02699C9.61162 6.93603 9.56051 6.81266 9.56051 6.68402C9.55957 5.83313 9.22116 5.01735 8.61952 4.41565C8.01788 3.81394 7.20213 3.47545 6.35124 3.47442C6.2226 3.47442 6.09923 3.42332 6.00827 3.33236C5.91731 3.2414 5.86621 3.11803 5.86621 2.98939C5.86621 2.86076 5.91731 2.73739 6.00827 2.64643C6.09923 2.55547 6.2226 2.50436 6.35124 2.50436C8.65577 2.50436 10.5306 4.37981 10.5306 6.68402C10.5306 6.81266 10.4795 6.93603 10.3885 7.02699C10.2976 7.11795 10.1742 7.16905 10.0455 7.16905Z" fill="#1D1C1C" fill-opacity="0.8"/>
<path id="Vector_3" d="M12.0956 7.16909C11.967 7.16909 11.8436 7.11798 11.7526 7.02702C11.6617 6.93606 11.6106 6.81269 11.6106 6.68406C11.6106 3.78391 9.2501 1.4244 6.35124 1.4244C6.2226 1.4244 6.09923 1.3733 6.00827 1.28234C5.91731 1.19138 5.86621 1.06801 5.86621 0.939375C5.86621 0.810737 5.91731 0.687368 6.00827 0.596408C6.09923 0.505447 6.2226 0.454346 6.35124 0.454346C9.78621 0.454346 12.5806 3.24908 12.5806 6.68406C12.5806 6.81269 12.5295 6.93606 12.4386 7.02702C12.3476 7.11798 12.2242 7.16909 12.0956 7.16909Z" fill="#1D1C1C" fill-opacity="0.8"/>
</g>
</svg>
