<svg width="53" height="40" viewBox="0 0 53 40" fill="none" xmlns="http://www.w3.org/2000/svg">
<g id="Layer_x0020_1">
<path id="Vector" d="M44.9744 0H7.84971C6.87462 0 6.0843 0.810574 6.0843 1.80558C6.0843 2.80058 6.87462 3.61115 7.84971 3.61115H44.9744C47.45 3.61115 49.467 5.67174 49.467 8.21048V31.5418C49.467 34.076 47.45 36.1366 44.9744 36.1366H8.02558C5.55001 36.1366 3.53304 34.076 3.53304 31.5418V8.0306C3.53304 7.03105 2.7405 6.22275 1.76318 6.22275C0.790314 6.22275 0 7.03105 0 8.0306V31.5418C0 36.0705 3.59982 39.75 8.02558 39.75H44.9744C49.4002 39.75 53 36.0705 53 31.5418V8.21048C53 3.67946 49.4002 0 44.9744 0ZM39.0415 25.6515C37.9685 25.6515 37.1002 24.7612 37.1002 23.6706C37.1002 22.6687 36.3077 21.8604 35.3326 21.8604C34.3575 21.8604 33.5672 22.6687 33.5672 23.6706C33.5672 26.1182 35.1255 28.1857 37.2739 28.9416V29.9639C37.2739 30.9612 38.0664 31.774 39.0415 31.774C40.0188 31.774 40.8069 30.9612 40.8069 29.9639V28.9416C42.9574 28.1857 44.5136 26.1182 44.5136 23.6706C44.5136 20.5786 42.0603 18.0671 39.0415 18.0671C37.9685 18.0671 37.1002 17.1769 37.1002 16.084C37.1002 14.9888 37.9685 14.0985 39.0415 14.0985C40.1101 14.0985 40.9805 14.9888 40.9805 16.084C40.9805 17.0813 41.7709 17.8918 42.7482 17.8918C43.7233 17.8918 44.5136 17.0813 44.5136 16.084C44.5136 13.6318 42.9574 11.5689 40.8069 10.8107V9.78381C40.8069 8.78653 40.0188 7.97596 39.0415 7.97596C38.0664 7.97596 37.2739 8.78653 37.2739 9.78381V10.8107C35.1255 11.5689 33.5672 13.6318 33.5672 16.084C33.5672 19.1714 36.0227 21.6806 39.0415 21.6806C40.1101 21.6806 40.9805 22.5708 40.9805 23.6706C40.9805 24.7612 40.1101 25.6515 39.0415 25.6515ZM8.83148 30.7176H26.4989C27.474 30.7176 28.2643 29.9047 28.2643 28.9097C28.2643 27.9147 27.474 27.1041 26.4989 27.1041H8.83148C7.85639 27.1041 7.06607 27.9147 7.06607 28.9097C7.06607 29.9047 7.85639 30.7176 8.83148 30.7176ZM8.83148 12.6481H26.4989C27.474 12.6481 28.2643 11.8376 28.2643 10.8426C28.2643 9.84301 27.474 9.03471 26.4989 9.03471H8.83148C7.85639 9.03471 7.06607 9.84301 7.06607 10.8426C7.06607 11.8376 7.85639 12.6481 8.83148 12.6481ZM8.83148 21.6806H26.4989C27.474 21.6806 28.2643 20.8723 28.2643 19.8727C28.2643 18.8754 27.474 18.0671 26.4989 18.0671H8.83148C7.85639 18.0671 7.06607 18.8754 7.06607 19.8727C7.06607 20.8723 7.85639 21.6806 8.83148 21.6806Z" fill="#00668C"/>
</g>
</svg>
