<svg width="39" height="40" viewBox="0 0 39 40" fill="none" xmlns="http://www.w3.org/2000/svg">
<g id="Customer_satisfied">
<path id="Vector" d="M20.6898 16.0744C19.5758 14.5742 18.0717 13.4083 16.3412 12.7036C16.1562 12.6239 15.9986 12.4918 15.8879 12.3236C15.7771 12.1553 15.7181 11.9583 15.7181 11.7569C15.7169 11.613 15.7452 11.4703 15.8013 11.3378C15.8574 11.2052 15.9402 11.0856 16.0444 10.9863C16.1081 10.9256 16.1691 10.8659 16.2148 10.8178C16.5376 10.478 16.8223 10.104 17.064 9.70246C17.6999 8.64157 18.0151 7.41932 17.9717 6.18322C17.9283 4.94712 17.5281 3.74999 16.8194 2.7363C16.1107 1.72262 15.1238 0.935699 13.9777 0.470507C12.8317 0.00531439 11.5755 -0.118268 10.3608 0.114672C9.12288 0.331315 7.97882 0.915419 7.07735 1.79102C6.17589 2.66663 5.55875 3.79322 5.30618 5.02429C5.07288 6.08432 5.11266 7.18625 5.42177 8.22671C5.73089 9.26717 6.29921 10.2121 7.07344 10.9728C7.17852 11.0723 7.26264 11.1919 7.32085 11.3244C7.37907 11.457 7.41021 11.5998 7.41244 11.7445V11.7499C7.4143 11.953 7.35616 12.1521 7.24532 12.3222C7.13447 12.4924 6.97585 12.6261 6.78935 12.7065C4.23616 13.7641 2.20011 15.7817 1.11917 18.3251C0.359349 20.067 -0.0217974 21.9505 0.000962446 23.8508V25.2205C0.000953791 25.5141 0.0587667 25.8048 0.1711 26.076C0.283433 26.3472 0.448087 26.5936 0.65566 26.8012C0.863233 27.0088 1.10966 27.1735 1.38087 27.2858C1.65208 27.3981 1.94276 27.456 2.23632 27.456H14.1468C14.1518 25.1533 14.758 22.8919 15.9056 20.8956C17.0532 18.8993 18.7024 17.2374 20.6898 16.0744Z" fill="#00668C"/>
<path id="Vector_2" d="M35.6192 19.3749C34.0051 17.7607 31.9485 16.6615 29.7096 16.2161C27.4707 15.7708 25.15 15.9994 23.041 16.8729C20.932 17.7465 19.1294 19.2259 17.8612 21.1239C16.5929 23.022 15.916 25.2535 15.916 27.5362C15.916 29.819 16.5929 32.0505 17.8612 33.9486C19.1294 35.8466 20.932 37.326 23.041 38.1995C25.15 39.0731 27.4707 39.3017 29.7096 38.8563C31.9485 38.411 34.0051 37.3117 35.6192 35.6976C36.691 34.6258 37.5412 33.3535 38.1212 31.9531C38.7013 30.5528 38.9998 29.0519 38.9998 27.5362C38.9998 26.0205 38.7013 24.5197 38.1212 23.1194C37.5412 21.719 36.691 20.4467 35.6192 19.3749ZM22.5643 23.7405C22.5643 23.4783 22.6684 23.2269 22.8538 23.0415C23.0392 22.8561 23.2906 22.752 23.5528 22.752C23.815 22.752 24.0664 22.8561 24.2518 23.0415C24.4372 23.2269 24.5413 23.4783 24.5413 23.7405V24.4561C24.5413 24.7183 24.4372 24.9697 24.2518 25.1551C24.0664 25.3405 23.815 25.4446 23.5528 25.4446C23.2906 25.4446 23.0392 25.3405 22.8538 25.1551C22.6684 24.9697 22.5643 24.7183 22.5643 24.4561V23.7405ZM27.5515 34.2269C26.2295 34.2255 24.9619 33.6997 24.027 32.7649C23.0921 31.8302 22.5661 30.5627 22.5645 29.2406C22.5645 28.9784 22.6687 28.727 22.8541 28.5416C23.0395 28.3562 23.2909 28.2521 23.5531 28.2521C23.8152 28.2521 24.0667 28.3562 24.252 28.5416C24.4374 28.727 24.5416 28.9784 24.5416 29.2406C24.5416 30.0388 24.8587 30.8043 25.4231 31.3687C25.9875 31.9331 26.753 32.2502 27.5512 32.2502C28.3494 32.2502 29.1149 31.9331 29.6793 31.3687C30.2437 30.8043 30.5608 30.0388 30.5608 29.2406C30.5608 28.9784 30.665 28.727 30.8504 28.5416C31.0357 28.3562 31.2872 28.2521 31.5493 28.2521C31.8115 28.2521 32.0629 28.3562 32.2483 28.5416C32.4337 28.727 32.5379 28.9784 32.5379 29.2406C32.5363 30.5626 32.0105 31.83 31.0757 32.7647C30.1409 33.6995 28.8735 34.2254 27.5515 34.2269ZM32.5379 24.4563C32.5379 24.7185 32.4337 24.9699 32.2483 25.1553C32.0629 25.3407 31.8115 25.4448 31.5493 25.4448C31.2872 25.4448 31.0357 25.3407 30.8504 25.1553C30.665 24.9699 30.5608 24.7185 30.5608 24.4563V23.7405C30.5608 23.4783 30.665 23.2269 30.8504 23.0415C31.0357 22.8561 31.2872 22.752 31.5493 22.752C31.8115 22.752 32.0629 22.8561 32.2483 23.0415C32.4337 23.2269 32.5379 23.4783 32.5379 23.7405V24.4563Z" fill="#00668C"/>
</g>
</svg>
