<svg width="39" height="39" viewBox="0 0 39 39" fill="none" xmlns="http://www.w3.org/2000/svg">
<path id="Vector" d="M19.5 0C8.68636 0 0 8.68636 0 19.5C0 30.3136 8.68636 39 19.5 39C30.3136 39 39 30.3136 39 19.5C39 8.68636 30.3136 0 19.5 0ZM31.3773 22.6909C31.2 23.4 30.4909 23.7545 29.7818 23.5773L19.8545 21.6273C19.5 21.6273 19.1455 21.2727 18.7909 21.0955C18.0818 20.7409 17.7273 20.2091 17.7273 19.5L18.0818 5.31818C18.0818 4.43182 18.7909 3.9 19.5 3.9C20.2091 3.9 20.9182 4.60909 20.9182 5.31818L21.0955 17.55L30.3136 20.7409C31.2 20.9182 31.5545 21.8045 31.3773 22.6909Z" fill="#00668C"/>
</svg>
