<svg width="31" height="31" viewBox="0 0 31 31" fill="none" xmlns="http://www.w3.org/2000/svg">
<g id="Group 107">
<rect id="Rectangle 67" width="31" height="31" rx="5" fill="#FFB232" fill-opacity="0.25"/>
<path id="Vector" d="M15.5 5C9.67727 5 5 9.67727 5 15.5C5 21.3227 9.67727 26 15.5 26C21.3227 26 26 21.3227 26 15.5C26 9.67727 21.3227 5 15.5 5ZM21.8955 17.2182C21.8 17.6 21.4182 17.7909 21.0364 17.6955L15.6909 16.6455C15.5 16.6455 15.3091 16.4545 15.1182 16.3591C14.7364 16.1682 14.5455 15.8818 14.5455 15.5L14.7364 7.86364C14.7364 7.38636 15.1182 7.1 15.5 7.1C15.8818 7.1 16.2636 7.48182 16.2636 7.86364L16.3591 14.45L21.3227 16.1682C21.8 16.2636 21.9909 16.7409 21.8955 17.2182Z" fill="#FFB232"/>
</g>
</svg>
