<svg width="31" height="31" viewBox="0 0 31 31" fill="none" xmlns="http://www.w3.org/2000/svg">
<g id="Group 104">
<rect id="Rectangle 64" width="31" height="31" rx="5" fill="#CE8EFD" fill-opacity="0.25"/>
<path id="Vector" d="M22.8201 4H8.11026C7.7239 4 7.41076 4.44862 7.41076 4.99931C7.41076 5.55001 7.7239 5.99863 8.11026 5.99863H22.8201C23.8009 5.99863 24.6001 7.13908 24.6001 8.54416V21.4571C24.6001 22.8597 23.8009 24.0001 22.8201 24.0001H8.17995C7.19906 24.0001 6.39988 22.8597 6.39988 21.4571V8.44461C6.39988 7.8914 6.08586 7.44404 5.69862 7.44404C5.31314 7.44404 5 7.8914 5 8.44461V21.4571C5 23.9636 6.42635 26 8.17995 26H22.8201C24.5737 26 26 23.9636 26 21.4571V8.54416C26 6.03643 24.5737 4 22.8201 4ZM20.4693 18.197C20.0441 18.197 19.7001 17.7043 19.7001 17.1007C19.7001 16.5462 19.3861 16.0989 18.9997 16.0989C18.6133 16.0989 18.3002 16.5462 18.3002 17.1007C18.3002 18.4554 18.9177 19.5996 19.7689 20.018V20.5838C19.7689 21.1358 20.0829 21.5856 20.4693 21.5856C20.8565 21.5856 21.1688 21.1358 21.1688 20.5838V20.018C22.0209 19.5996 22.6375 18.4554 22.6375 17.1007C22.6375 15.3894 21.6654 13.9994 20.4693 13.9994C20.0441 13.9994 19.7001 13.5067 19.7001 12.9018C19.7001 12.2957 20.0441 11.803 20.4693 11.803C20.8927 11.803 21.2376 12.2957 21.2376 12.9018C21.2376 13.4538 21.5507 13.9024 21.938 13.9024C22.3243 13.9024 22.6375 13.4538 22.6375 12.9018C22.6375 11.5446 22.0209 10.4029 21.1688 9.98327V9.41494C21.1688 8.86299 20.8565 8.41437 20.4693 8.41437C20.0829 8.41437 19.7689 8.86299 19.7689 9.41494V9.98327C18.9177 10.4029 18.3002 11.5446 18.3002 12.9018C18.3002 14.6106 19.2732 15.9993 20.4693 15.9993C20.8927 15.9993 21.2376 16.492 21.2376 17.1007C21.2376 17.7043 20.8927 18.197 20.4693 18.197ZM8.49926 21.0009H15.4996C15.8859 21.0009 16.1991 20.551 16.1991 20.0003C16.1991 19.4496 15.8859 19.001 15.4996 19.001H8.49926C8.11291 19.001 7.79976 19.4496 7.79976 20.0003C7.79976 20.551 8.11291 21.0009 8.49926 21.0009ZM8.49926 11.0002H15.4996C15.8859 11.0002 16.1991 10.5516 16.1991 10.0009C16.1991 9.4477 15.8859 9.00034 15.4996 9.00034H8.49926C8.11291 9.00034 7.79976 9.4477 7.79976 10.0009C7.79976 10.5516 8.11291 11.0002 8.49926 11.0002ZM8.49926 15.9993H15.4996C15.8859 15.9993 16.1991 15.552 16.1991 14.9987C16.1991 14.4468 15.8859 13.9994 15.4996 13.9994H8.49926C8.11291 13.9994 7.79976 14.4468 7.79976 14.9987C7.79976 15.552 8.11291 15.9993 8.49926 15.9993Z" fill="#CE8EFD"/>
</g>
</svg>
