<svg width="31" height="31" viewBox="0 0 31 31" fill="none" xmlns="http://www.w3.org/2000/svg">
<g id="Group 106">
<rect id="Rectangle 65" width="31" height="31" rx="5" fill="#25B8A9" fill-opacity="0.25"/>
<g id="Customer_satisfied">
<path id="Vector" d="M16.6102 13.2269C16.0389 12.4591 15.2676 11.8624 14.3801 11.5017C14.2853 11.4609 14.2044 11.3933 14.1476 11.3072C14.0909 11.2211 14.0606 11.1203 14.0606 11.0172C14.0599 10.9435 14.0745 10.8705 14.1032 10.8026C14.132 10.7348 14.1745 10.6736 14.2279 10.6228C14.2606 10.5917 14.2919 10.5611 14.3153 10.5365C14.4808 10.3626 14.6269 10.1712 14.7508 9.9657C15.0769 9.42274 15.2386 8.79719 15.2163 8.16456C15.194 7.53192 14.9888 6.91924 14.6254 6.40044C14.2619 5.88163 13.7558 5.47889 13.1681 5.2408C12.5804 5.00272 11.9362 4.93947 11.3132 5.05869C10.6784 5.16957 10.0917 5.46851 9.62942 5.91664C9.16713 6.36478 8.85065 6.94136 8.72113 7.57142C8.60149 8.11394 8.62188 8.67791 8.7804 9.21041C8.93892 9.74292 9.23037 10.2265 9.62742 10.6158C9.6813 10.6668 9.72444 10.728 9.75429 10.7958C9.78415 10.8636 9.80011 10.9367 9.80126 11.0108V11.0136C9.80221 11.1175 9.7724 11.2194 9.71556 11.3065C9.65871 11.3936 9.57737 11.462 9.48172 11.5032C8.1724 12.0445 7.12826 13.077 6.57393 14.3787C6.18428 15.2703 5.98882 16.2342 6.00049 17.2068V17.9078C6.00049 18.0581 6.03014 18.2068 6.08774 18.3456C6.14535 18.4844 6.22979 18.6106 6.33624 18.7168C6.44268 18.823 6.56906 18.9073 6.70814 18.9648C6.84722 19.0223 6.99629 19.0519 7.14683 19.0519H13.2548C13.2573 17.8734 13.5682 16.716 14.1568 15.6943C14.7453 14.6726 15.591 13.8221 16.6102 13.2269Z" fill="#25B8A9"/>
<path id="Vector_2" d="M24.2664 14.9159C23.4386 14.0898 22.3839 13.5272 21.2358 13.2993C20.0876 13.0714 18.8975 13.1883 17.816 13.6354C16.7344 14.0825 15.81 14.8397 15.1596 15.8111C14.5092 16.7825 14.1621 17.9246 14.1621 19.0929C14.1621 20.2612 14.5092 21.4033 15.1596 22.3747C15.81 23.3461 16.7344 24.1033 17.816 24.5503C18.8975 24.9974 20.0876 25.1144 21.2358 24.8865C22.3839 24.6586 23.4386 24.096 24.2664 23.2698C24.816 22.7213 25.252 22.0701 25.5494 21.3534C25.8469 20.6368 26 19.8686 26 19.0929C26 18.3172 25.8469 17.549 25.5494 16.8323C25.252 16.1157 24.816 15.4645 24.2664 14.9159ZM17.5715 17.1502C17.5715 17.0161 17.6249 16.8874 17.72 16.7925C17.815 16.6976 17.944 16.6443 18.0784 16.6443C18.2129 16.6443 18.3418 16.6976 18.4369 16.7925C18.5319 16.8874 18.5853 17.0161 18.5853 17.1502V17.5165C18.5853 17.6507 18.5319 17.7794 18.4369 17.8742C18.3418 17.9691 18.2129 18.0224 18.0784 18.0224C17.944 18.0224 17.815 17.9691 17.72 17.8742C17.6249 17.7794 17.5715 17.6507 17.5715 17.5165V17.1502ZM20.1291 22.5172C19.4511 22.5164 18.801 22.2474 18.3216 21.7689C17.8422 21.2905 17.5724 20.6418 17.5716 19.9652C17.5716 19.831 17.625 19.7023 17.7201 19.6074C17.8152 19.5126 17.9441 19.4593 18.0786 19.4593C18.213 19.4593 18.3419 19.5126 18.437 19.6074C18.5321 19.7023 18.5855 19.831 18.5855 19.9652C18.5855 20.3737 18.7481 20.7655 19.0375 21.0543C19.327 21.3432 19.7196 21.5055 20.1289 21.5055C20.5382 21.5055 20.9308 21.3432 21.2202 21.0543C21.5097 20.7655 21.6723 20.3737 21.6723 19.9652C21.6723 19.831 21.7257 19.7023 21.8208 19.6074C21.9158 19.5126 22.0448 19.4593 22.1792 19.4593C22.3137 19.4593 22.4426 19.5126 22.5377 19.6074C22.6327 19.7023 22.6862 19.831 22.6862 19.9652C22.6854 20.6418 22.4157 21.2904 21.9363 21.7688C21.4569 22.2472 20.807 22.5164 20.1291 22.5172ZM22.6862 17.5166C22.6862 17.6508 22.6327 17.7795 22.5377 17.8743C22.4426 17.9692 22.3137 18.0225 22.1792 18.0225C22.0448 18.0225 21.9158 17.9692 21.8208 17.8743C21.7257 17.7795 21.6723 17.6508 21.6723 17.5166V17.1502C21.6723 17.0161 21.7257 16.8874 21.8208 16.7925C21.9158 16.6976 22.0448 16.6443 22.1792 16.6443C22.3137 16.6443 22.4426 16.6976 22.5377 16.7925C22.6327 16.8874 22.6862 17.0161 22.6862 17.1502V17.5166Z" fill="#25B8A9"/>
</g>
</g>
</svg>
