<svg width="16" height="15" viewBox="0 0 16 15" fill="none" xmlns="http://www.w3.org/2000/svg">
<path id="User" fill-rule="evenodd" clip-rule="evenodd" d="M16 15H0C0.477665 10.9589 3.87723 7.82609 8 7.82609C12.1228 7.82609 15.5223 10.9589 16 15ZM0.96 14.3478C1.38035 11.0415 4.37196 8.47826 8 8.47826C11.628 8.47826 14.6197 11.0415 15.04 14.3478H0.96ZM8 7.17391C9.94404 7.17391 11.52 5.56798 11.52 3.58696C11.52 1.60594 9.94404 0 8 0C6.05596 0 4.48 1.60594 4.48 3.58696C4.48 5.56798 6.05596 7.17391 8 7.17391ZM8 6.52174C6.40942 6.52174 5.12 5.20779 5.12 3.58696C5.12 1.96612 6.40942 0.652174 8 0.652174C9.59058 0.652174 10.88 1.96612 10.88 3.58696C10.88 5.20779 9.59058 6.52174 8 6.52174Z" fill="#1D1C1C"/>
</svg>
